<?xml version="1.0" encoding="UTF-8"?>
<svg xmlns="http://www.w3.org/2000/svg" xmlns:xlink="http://www.w3.org/1999/xlink" viewBox="0 0 100 100" width="100px" height="100px">
<g id="surface46522748">
<path style=" stroke:none;fill-rule:nonzero;fill:rgb(18.039216%,80.000001%,44.313726%);fill-opacity:1;" d="M 50 0 C 22.386719 0 0 22.386719 0 50 C 0 75.066406 18.464844 95.765625 42.523438 99.382812 L 42.523438 63.25 L 30.152344 63.25 L 30.152344 50.109375 L 42.523438 50.109375 L 42.523438 41.363281 C 42.523438 26.882812 49.578125 20.527344 61.613281 20.527344 C 67.375 20.527344 70.425781 20.957031 71.867188 21.148438 L 71.867188 32.621094 L 63.660156 32.621094 C 58.550781 32.621094 56.765625 37.464844 56.765625 42.925781 L 56.765625 50.109375 L 71.738281 50.109375 L 69.707031 63.25 L 56.765625 63.25 L 56.765625 99.488281 C 81.171875 96.179688 100 75.3125 100 50 C 100 22.386719 77.613281 0 50 0 Z M 50 0 "/>
</g>
</svg>
